#!OML:ASF I:\Actors\actors\Patient Classification 2\Patient 1\Session 1\actor1.ASF
:FULLY-SPECIFIED
:DEGREES
171
root -0.414723 18.8111 5.24333 7.72076 5.64465 -4.1913
lowerback 21.1011 0.751091 0.231531
upperback 8.20706 1.35295 6.14059
thorax -3.0044 0.59157 6.17336
lowerneck -14.0299 -2.03745 -2.57241
upperneck 4.96481 -1.98183 -3.1691
head 4.17295 -1.2076 -0.769573
rclavicle 1.59028e-015 1.27222e-014
rhumerus -33.7251 12.2962 -77.258
rradius 49.3035
rwrist 14.4231
rhand -24.0385 -33.7406
rfingers 7.12502
rthumb 2.44015 -63.7064
lclavicle 1.59028e-015 1.27222e-014
lhumerus -3.3829 -46.0278 91.9936
lradius 45.827
lwrist 5.04463
lhand -10.128 -15.6793
lfingers 7.12502
lthumb 15.8603 13.6911
rfemur -0.886995 -6.17913 18.1482
rtibia 2.38542e-015
rfoot -14.8355 -12.2135
rtoes -5.54066
lfemur -19.7453 -5.53077 -9.9083
ltibia 27.8623
lfoot -17.314 6.03085
ltoes -56.224
172
root -0.422352 18.8191 5.24418 8.03006 5.22188 -3.89902
lowerback 21.0908 0.591179 -0.0596381
upperback 8.20035 1.07606 5.94713
thorax -2.97782 0.451069 6.1954
lowerneck -14.3127 -1.69277 -2.40576
upperneck 5.36907 -1.52807 -3.23421
head 3.90833 -0.996681 -0.724383
rclavicle 7.95139e-015 2.06736e-014
rhumerus -33.7025 13.1072 -77.9222
rradius 49.8672
rwrist 14.0631
rhand -23.991 -34.0053
rfingers 7.12502
rthumb 2.48602 -63.9706
lclavicle 7.95139e-015 2.06736e-014
lhumerus -2.40588 -45.2241 91.1079
lradius 45.5257
lwrist 4.6762
lhand -9.61704 -15.4499
lfingers 7.12502
lthumb 16.3524 13.8808
rfemur -1.26968 -5.81061 17.8523
rtibia 1.59028e-015
rfoot -14.7432 -12.3606
rtoes -5.60663
lfemur -19.7942 -5.29548 -10.2097
ltibia 27.5632
lfoot -17.2358 6.19412
ltoes -56.2079
173
root -0.431606 18.8257 5.2453 8.33658 4.81272 -3.63485
lowerback 21.0721 0.320865 -0.486046
upperback 8.17085 0.629771 5.72973
thorax -2.95185 0.225203 6.30977
lowerneck -14.4166 -1.14254 -1.74349
upperneck 5.30227 -0.881951 -3.58798
head 3.90389 -0.682773 -0.891974
rclavicle 1.59028e-015 2.38542e-014
rhumerus -33.6875 14.3195 -78.8292
rradius 50.4275
rwrist 13.7715
rhand -23.956 -34.3615
rfingers 7.12502
rthumb 2.51981 -64.3263
lclavicle 1.59028e-015 2.38542e-014
lhumerus -1.59945 -44.0245 90.1159
lradius 45.4081
lwrist 4.77404
lhand -8.50192 -14.8079
lfingers 7.12502
lthumb 17.4258 14.431
rfemur -1.65046 -5.45397 17.5915
rtibia -1.90833e-014
rfoot -14.5675 -12.5155
rtoes -5.97328
lfemur -19.8587 -5.06241 -10.4743
ltibia 27.2781
lfoot -17.1769 6.34287
ltoes -56.1651
174
root -0.444474 18.8313 5.24573 8.57731 4.39727 -3.44682
lowerback 21.1075 0.11455 -0.743121
upperback 8.14837 0.301679 5.54026
thorax -2.95636 0.0605441 6.32892
lowerneck -14.3123 -0.737691 -1.16429
upperneck 4.74764 -0.437179 -3.8774
head 4.15676 -0.450229 -1.14151
rclavicle 2.38542e-015 -1.03368e-014
rhumerus -33.7296 15.4375 -79.6335
rradius 51.0026
rwrist 13.4028
rhand -23.8811 -34.9829
rfingers 7.12502
rthumb 2.59214 -64.9469
lclavicle 2.38542e-015 -1.03368e-014
lhumerus -0.812182 -43.1541 89.1928
lradius 45.477
lwrist 5.16654
lhand -7.30892 -14.1329
lfingers 7.12502
lthumb 18.5737 15.0004
rfemur -1.96921 -5.07771 17.4202
rtibia 7.95139e-015
rfoot -14.4031 -12.6611
rtoes -6.44964
lfemur -19.8686 -4.78058 -10.6496
ltibia 27.0098
lfoot -17.131 6.44764
ltoes -56.0817
175
root -0.459916 18.8369 5.24731 8.75827 4.00471 -3.26596
lowerback 21.1893 -0.012165 -0.856927
upperback 8.15561 0.105405 5.36877
thorax -2.96753 -0.0369902 6.25418
lowerneck -14.2758 -0.467399 -0.952114
upperneck 4.58018 -0.109084 -4.02559
head 4.09543 -0.288337 -1.20171
rclavicle -4.37326e-015 -1.59028e-015
rhumerus -33.7095 16.2628 -80.2588
rradius 51.5329
rwrist 12.9157
rhand -23.7642 -35.6702
rfingers 7.12502
rthumb 2.70513 -65.6328
lclavicle -4.37326e-015 -1.59028e-015
lhumerus -0.0279732 -42.6961 88.3378
lradius 45.4377
lwrist 5.15517
lhand -7.13147 -14.4649
lfingers 7.12502
lthumb 18.7444 14.652
rfemur -2.21623 -4.72128 17.2526
rtibia -9.54166e-015
rfoot -14.3481 -12.74
rtoes -6.41592
lfemur -19.8199 -4.50797 -10.8125
ltibia 26.755
lfoot -17.0996 6.51766
ltoes -55.9546
176
root -0.475277 18.8424 5.24961 8.95206 3.64785 -3.07304
lowerback 21.2971 -0.15246 -0.949095
upperback 8.14362 -0.103284 5.18877
thorax -3.01186 -0.139003 6.16162
lowerneck -14.2518 -0.140971 -0.701151
upperneck 4.39714 0.290695 -4.22092
head 4.03472 -0.0924317 -1.27962
rclavicle 1.63003e-014 -1.82882e-014
rhumerus -33.6501 17.096 -80.859
rradius 52.034
rwrist 12.254
rhand -23.6844 -36.0343
rfingers 7.12502
rthumb 2.78219 -65.9959
lclavicle 1.63003e-014 -1.82882e-014
lhumerus 0.652085 -42.2193 87.5043
lradius 45.2751
lwrist 4.8125
lhand -7.28076 -14.7672
lfingers 7.12502
lthumb 18.6008 14.3635
rfemur -2.46965 -4.40467 17.0662
rtibia -9.54166e-015
rfoot -14.3045 -12.7923
rtoes -6.20892
lfemur -19.7904 -4.28544 -10.9841
ltibia 26.5034
lfoot -17.0538 6.5877
ltoes -55.8606
